<?xml version="1.0" encoding="utf-8"?>
<!-- Generator: Adobe Illustrator 27.9.0, SVG Export Plug-In . SVG Version: 6.00 Build 0)  -->
<svg version="1.1" id="Layer_1" xmlns="http://www.w3.org/2000/svg" xmlns:xlink="http://www.w3.org/1999/xlink" x="0px" y="0px"
	 viewBox="0 0 48 40.1" style="enable-background:new 0 0 48 40.1;" xml:space="preserve">
<style type="text/css">
	.st0{fill:#066CFF;}
</style>
<g>
	<path class="st0" d="M6.8,38.9c-2.8,0-5.1-2.3-5.1-5.1V2.6c0-0.8,0.7-1.5,1.5-1.5h14.4c0.4,0,0.9,0.2,1.1,0.5l3.9,4.7h18.6
		c2.8,0,5.1,2.3,5.1,5.1v22.5c0,2.8-2.3,5.1-5.1,5.1H6.8z M4.7,33.9c0,1.2,0.9,2.1,2.1,2.1h34.5c1.2,0,2.1-0.9,2.1-2.1V11.4
		c0-1.2-0.9-2.1-2.1-2.1H4.7V33.9z M18.8,6.3l-1.9-2.2H4.7v2.2H18.8z"/>
	<path class="st0" d="M41.2,6.8H22.4L18.4,2c-0.2-0.2-0.5-0.4-0.8-0.4H3.2c-0.6,0-1,0.4-1,1c0,0,0,0,0,0v31.2c0,2.5,2.1,4.6,4.6,4.6
		h34.5c2.5,0,4.6-2.1,4.6-4.6V11.4C45.8,8.9,43.8,6.8,41.2,6.8z M4.2,3.6h13l2.7,3.2H4.2V3.6z M43.8,33.9c0,1.4-1.2,2.6-2.6,2.6H6.8
		c-1.4,0-2.6-1.2-2.6-2.6v-25h37.1c1.4,0,2.6,1.2,2.6,2.6V33.9z"/>
</g>
</svg>
